<svg width="20" height="14" viewBox="0 0 20 14" fill="none" xmlns="http://www.w3.org/2000/svg">
<path d="M19.4456 6.44617H1.89229L6.6564 1.68206C6.87407 1.46439 6.87407 1.1153 6.6564 0.897628C6.43873 0.679957 6.08964 0.679957 5.87197 0.897628L0.163253 6.60634C-0.0544176 6.82401 -0.0544176 7.1731 0.163253 7.39077L5.87197 13.0995C5.97875 13.2063 6.12249 13.2638 6.26213 13.2638C6.40177 13.2638 6.54551 13.2104 6.65229 13.0995C6.86996 12.8818 6.86996 12.5327 6.65229 12.3151L1.88819 7.55095H19.4456C19.7536 7.55095 20 7.30453 20 6.9965C20 6.68848 19.7536 6.44617 19.4456 6.44617Z" fill="#002639"/>
</svg>
