<svg width="178" height="227" viewBox="0 0 178 227" fill="none" xmlns="http://www.w3.org/2000/svg">
<g filter="url(#filter0_d_149_9292)">
<rect x="100" y="52" width="27" height="27" rx="13.5" fill="white"/>
<g clip-path="url(#clip0_149_9292)">
<path d="M115.413 60.6663L116.633 61.9997H119.333V69.9997H108.667V61.9997H111.367L112.587 60.6663H115.413ZM116 59.333H112L110.78 60.6663H108.667C107.933 60.6663 107.333 61.2663 107.333 61.9997V69.9997C107.333 70.733 107.933 71.333 108.667 71.333H119.333C120.067 71.333 120.667 70.733 120.667 69.9997V61.9997C120.667 61.2663 120.067 60.6663 119.333 60.6663H117.22L116 59.333ZM114 63.9997C115.1 63.9997 116 64.8997 116 65.9997C116 67.0997 115.1 67.9997 114 67.9997C112.9 67.9997 112 67.0997 112 65.9997C112 64.8997 112.9 63.9997 114 63.9997ZM114 62.6663C112.16 62.6663 110.667 64.1597 110.667 65.9997C110.667 67.8397 112.16 69.333 114 69.333C115.84 69.333 117.333 67.8397 117.333 65.9997C117.333 64.1597 115.84 62.6663 114 62.6663Z" fill="black"/>
</g>
</g>
<defs>
<filter id="filter0_d_149_9292" x="0" y="0" width="227" height="227" filterUnits="userSpaceOnUse" color-interpolation-filters="sRGB">
<feFlood flood-opacity="0" result="BackgroundImageFix"/>
<feColorMatrix in="SourceAlpha" type="matrix" values="0 0 0 0 0 0 0 0 0 0 0 0 0 0 0 0 0 0 127 0" result="hardAlpha"/>
<feOffset dy="48"/>
<feGaussianBlur stdDeviation="50"/>
<feColorMatrix type="matrix" values="0 0 0 0 0.0666667 0 0 0 0 0.0470588 0 0 0 0 0.180392 0 0 0 0.15 0"/>
<feBlend mode="normal" in2="BackgroundImageFix" result="effect1_dropShadow_149_9292"/>
<feBlend mode="normal" in="SourceGraphic" in2="effect1_dropShadow_149_9292" result="shape"/>
</filter>
<clipPath id="clip0_149_9292">
<rect width="16" height="16" fill="white" transform="translate(106 58)"/>
</clipPath>
</defs>
</svg>
