<svg width="24" height="24" viewBox="0 0 24 24" fill="none" xmlns="http://www.w3.org/2000/svg">
<path d="M14.6433 12L23.6166 3.02634C23.8634 2.77931 23.9996 2.44975 24 2.09834C24 1.74673 23.8638 1.41678 23.6166 1.17014L22.8302 0.383998C22.583 0.136388 22.2535 0.000778198 21.9017 0.000778198C21.5504 0.000778198 21.2209 0.136388 20.9737 0.383998L12.0004 9.35707L3.02673 0.383998C2.7799 0.136388 2.45015 0.000778198 2.09854 0.000778198C1.74732 0.000778198 1.41756 0.136388 1.17073 0.383998L0.384 1.17014C-0.128 1.68214 -0.128 2.51492 0.384 3.02634L9.35746 12L0.384 20.9733C0.136976 21.2207 0.00097561 21.5502 0.00097561 21.9017C0.00097561 22.2531 0.136976 22.5826 0.384 22.8299L1.17054 23.616C1.41737 23.8634 1.74732 23.9992 2.09834 23.9992C2.44995 23.9992 2.77971 23.8634 3.02654 23.616L12.0002 14.6427L20.9735 23.616C21.2207 23.8634 21.5502 23.9992 21.9015 23.9992H21.9019C22.2533 23.9992 22.5828 23.8634 22.83 23.616L23.6164 22.8299C23.8632 22.5828 23.9994 22.2531 23.9994 21.9017C23.9994 21.5502 23.8632 21.2207 23.6164 20.9735L14.6433 12Z" fill="#5A585B"/>
</svg>
