<svg width="16" height="16" viewBox="0 0 16 16" fill="none" xmlns="http://www.w3.org/2000/svg">
<path d="M13.3446 1.99577H10.189C10.0862 0.878193 9.14396 0 8.00004 0C6.85613 0 5.91387 0.878193 5.81105 1.99577H2.65545C1.72284 1.99577 0.964111 2.7545 0.964111 3.68711C0.964111 4.59702 1.68647 5.34103 2.58778 5.37673V14.0042C2.58778 15.1047 3.48307 16 4.58355 16H11.4165C12.517 16 13.4123 15.1047 13.4123 14.0042V5.3767C14.3136 5.34103 15.0359 4.59702 15.0359 3.68708C15.0359 2.75447 14.2772 1.99577 13.3446 1.99577ZM5.79989 13.1782C5.79989 13.4584 5.57271 13.6856 5.29251 13.6856C5.01228 13.6856 4.78513 13.4584 4.78513 13.1782V6.50883C4.78513 6.22859 5.01231 6.00145 5.29251 6.00145C5.57275 6.00145 5.79989 6.22863 5.79989 6.50883V13.1782ZM8.50742 13.1782C8.50742 13.4584 8.28024 13.6856 8.00004 13.6856C7.71981 13.6856 7.49266 13.4584 7.49266 13.1782V6.50883C7.49266 6.22859 7.71984 6.00145 8.00004 6.00145C8.28028 6.00145 8.50742 6.22863 8.50742 6.50883V13.1782ZM11.215 13.1782C11.215 13.4584 10.9878 13.6856 10.7076 13.6856C10.4273 13.6856 10.2002 13.4584 10.2002 13.1782V6.50883C10.2002 6.22859 10.4273 6.00145 10.7076 6.00145C10.9878 6.00145 11.215 6.22863 11.215 6.50883V13.1782Z" fill="#5A585B"/>
</svg>
