<svg width="16" height="16" viewBox="0 0 16 16" fill="none" xmlns="http://www.w3.org/2000/svg">
<g clip-path="url(#clip0_3215_320008)">
<path d="M10.7713 10.707C10.6241 10.707 10.5063 10.8183 10.4899 10.9655C10.3623 12.2285 9.29565 13.2134 7.99667 13.2134C6.70097 13.2134 5.6343 12.2285 5.50342 10.9655C5.48706 10.8216 5.36927 10.707 5.22203 10.707H1.81917C1.10587 10.707 0.526733 11.2862 0.526733 11.9995V14.7087C0.526733 15.422 1.10587 16.0011 1.81917 16.0011H14.1807C14.894 16.0011 15.4732 15.422 15.4732 14.7087V12.0027C15.4732 11.2894 14.894 10.7103 14.1807 10.7103H10.7713V10.707Z" fill="#5A585B"/>
<path d="M9.93037 6.49816L8.91933 7.5092V0.919427C8.91933 0.41227 8.50706 0 7.9999 0C7.49274 0 7.08047 0.41227 7.08047 0.919427V7.5092L6.06943 6.49816C5.75859 6.18732 5.26125 6.10879 4.89479 6.35419C4.39417 6.68793 4.34509 7.37178 4.74755 7.77423L7.45675 10.4834C7.75777 10.7845 8.2453 10.7845 8.54632 10.4834L11.2555 7.77423C11.658 7.37178 11.6089 6.68793 11.1083 6.35419C10.7386 6.10552 10.2412 6.18405 9.93037 6.49816Z" fill="#5A585B"/>
</g>
<defs>
<clipPath id="clip0_3215_320008">
<rect width="16" height="16" fill="white"/>
</clipPath>
</defs>
</svg>
