<svg width="24" height="24" viewBox="0 0 24 24" fill="none" xmlns="http://www.w3.org/2000/svg">
<path d="M16.1569 16.0586C15.9361 16.0586 15.7594 16.2255 15.7348 16.4463C15.5434 18.3408 13.9434 19.8181 11.9949 19.8181C10.0514 19.8181 8.45139 18.3408 8.25507 16.4463C8.23053 16.2304 8.05384 16.0586 7.83298 16.0586H2.72869C1.65875 16.0586 0.790039 16.9273 0.790039 17.9972V22.061C0.790039 23.131 1.65875 23.9997 2.72869 23.9997H21.271C22.341 23.9997 23.2097 23.131 23.2097 22.061V18.0022C23.2097 16.9322 22.341 16.0635 21.271 16.0635H16.1569V16.0586Z" fill="#5A585B"/>
<path d="M14.8956 9.74724L13.379 11.2638V1.37914C13.379 0.618405 12.7606 0 11.9998 0C11.2391 0 10.6207 0.618405 10.6207 1.37914V11.2638L9.10414 9.74724C8.63789 9.28098 7.89187 9.16319 7.34218 9.53129C6.59126 10.0319 6.51764 11.0577 7.12132 11.6613L11.1851 15.7252C11.6367 16.1767 12.3679 16.1767 12.8195 15.7252L16.8833 11.6613C17.487 11.0577 17.4133 10.0319 16.6624 9.53129C16.1078 9.15828 15.3618 9.27607 14.8956 9.74724Z" fill="#5A585B"/>
</svg>
