<svg width="16" height="16" viewBox="0 0 16 16" fill="none" xmlns="http://www.w3.org/2000/svg">
<path d="M3.63635 8.72727V11.6364C3.63635 12.038 3.96198 12.3636 4.36363 12.3636H7.27272C7.46559 12.3636 7.65056 12.287 7.78695 12.1506L15.7869 4.15059C16.0709 3.86657 16.0709 3.40611 15.7869 3.12208L12.8778 0.212994C12.7415 0.0766546 12.5565 0 12.3636 0C12.1708 0 11.9857 0.0766546 11.8494 0.213042L3.84939 8.21304C3.71296 8.34938 3.63635 8.5344 3.63635 8.72727ZM5.0909 9.02851L12.3636 1.75578L14.2442 3.63636L6.97148 10.9091H5.0909V9.02851Z" fill="#5A585B"/>
<path d="M15.2727 7.27278C14.8711 7.27278 14.5455 7.5984 14.5455 8.00005V14.5455H1.45455V1.45455H8C8.40165 1.45455 8.72727 1.12892 8.72727 0.727273C8.72727 0.325624 8.40165 0 8 0H0.727273C0.325624 0 0 0.325624 0 0.727273V15.2727C0 15.6744 0.325624 16 0.727273 16H15.2727C15.6744 16 16 15.6744 16 15.2727V8.00005C16 7.59835 15.6744 7.27278 15.2727 7.27278Z" fill="#5A585B"/>
</svg>
