<svg width="17" height="16" viewBox="0 0 17 16" fill="#fff" xmlns="http://www.w3.org/2000/svg">
<g clip-path="url(#clip0_2714_297219)">
<path d="M4.13635 8.72727V11.6364C4.13635 12.038 4.46198 12.3636 4.86363 12.3636H7.77272C7.96559 12.3636 8.15056 12.287 8.28695 12.1506L16.2869 4.15059C16.5709 3.86657 16.5709 3.40611 16.2869 3.12208L13.3778 0.212994C13.2415 0.0766546 13.0565 0 12.8636 0C12.6708 0 12.4857 0.0766546 12.3494 0.213042L4.34939 8.21304C4.21296 8.34938 4.13635 8.5344 4.13635 8.72727ZM5.5909 9.02851L12.8636 1.75578L14.7442 3.63636L7.47148 10.9091H5.5909V9.02851Z" fill="#fff"/>
<path d="M15.7727 7.27278C15.3711 7.27278 15.0455 7.5984 15.0455 8.00005V14.5455H1.95455V1.45455H8.5C8.90165 1.45455 9.22727 1.12892 9.22727 0.727273C9.22727 0.325624 8.90165 0 8.5 0H1.22727C0.825624 0 0.5 0.325624 0.5 0.727273V15.2727C0.5 15.6744 0.825624 16 1.22727 16H15.7727C16.1744 16 16.5 15.6744 16.5 15.2727V8.00005C16.5 7.59835 16.1744 7.27278 15.7727 7.27278Z" fill="#fff"/>
</g>
<defs>
<clipPath id="clip0_2714_297219">
<rect width="16" height="16" fill="white" transform="translate(0.5)"/>
</clipPath>
</defs>
</svg>
