<svg width="24" height="24" viewBox="0 0 24 24" fill="none" xmlns="http://www.w3.org/2000/svg">
<g clip-path="url(#clip0_694_13424)">
<path d="M12.2465 7.44666C11.707 7.44729 11.1719 7.54437 10.6665 7.73332L16.5332 13.6C16.7246 13.0884 16.8218 12.5463 16.8198 12C16.8145 10.7905 16.3304 9.63242 15.4733 8.77908C14.6162 7.92573 13.456 7.44664 12.2465 7.44666Z" fill="#5A585B"/>
<path d="M22.8598 11.6867C20.6132 7.53335 16.6732 5.02002 12.3132 5.02002C11.1261 5.02281 9.94693 5.21408 8.81982 5.58669L9.89316 6.66669C10.6837 6.46237 11.4966 6.35712 12.3132 6.35335C16.0665 6.35335 19.4798 8.44669 21.5132 11.9734C20.7673 13.2818 19.7785 14.4357 18.5998 15.3734L19.5465 16.32C20.9105 15.2196 22.0434 13.8601 22.8798 12.32L23.0532 12L22.8598 11.6867Z" fill="#5A585B"/>
<path d="M3.24643 3.85332L6.21976 6.82665C4.34037 8.03673 2.80436 9.7105 1.75976 11.6867L1.58643 12L1.75976 12.32C4.00643 16.4733 7.94642 18.9867 12.3064 18.9867C14.0082 18.9863 15.6879 18.6011 17.2198 17.86L20.5531 21.1933L21.7198 20.1933L4.38643 2.85999L3.24643 3.85332ZM8.77976 9.38665C8.15605 10.2663 7.86371 11.3382 7.9545 12.4126C8.04529 13.4871 8.51336 14.4948 9.27583 15.2572C10.0383 16.0197 11.046 16.4878 12.1204 16.5786C13.1949 16.6694 14.2668 16.377 15.1464 15.7533L16.2131 16.82C14.9783 17.3478 13.6493 17.62 12.3064 17.62C8.55309 17.62 5.13976 15.5267 3.10643 12C4.08223 10.2721 5.48757 8.82545 7.18643 7.79999L8.77976 9.38665Z" fill="#5A585B"/>
</g>
<defs>
<clipPath id="clip0_694_13424">
<rect width="24" height="24" fill="white"/>
</clipPath>
</defs>
</svg>
