<svg width="24" height="16" viewBox="0 0 24 16" fill="none" xmlns="http://www.w3.org/2000/svg">
<path d="M11.7937 4.70471C10.064 4.70471 8.65308 6.18127 8.65308 8.00002C8.65308 9.81409 10.0593 11.2953 11.7937 11.2953C13.5234 11.2953 14.9343 9.81877 14.9343 8.00002C14.9343 6.18596 13.5234 4.70471 11.7937 4.70471Z" fill="#5A585B"/>
<path d="M11.7938 13.2079C9.00942 13.2079 6.74067 10.8735 6.74067 8.00005C6.74067 5.12661 9.00942 2.79224 11.7938 2.79224C14.5782 2.79224 16.8469 5.12661 16.8469 8.00005C16.8469 10.8735 14.5782 13.2079 11.7938 13.2079V13.2079ZM23.3391 7.4938C20.3485 2.6938 16.3172 0.0500488 12 0.0500488C7.68286 0.0500488 3.65161 2.6938 0.660986 7.4938C0.468799 7.80317 0.468799 8.19692 0.660986 8.5063C3.65161 13.3063 7.68286 15.95 12 15.95C16.3172 15.95 20.3438 13.3063 23.3391 8.5063C23.5313 8.19692 23.5313 7.80317 23.3391 7.4938Z" fill="#5A585B"/>
</svg>
