<svg width="51" height="50" viewBox="0 0 51 50" fill="none" xmlns="http://www.w3.org/2000/svg">
<g clip-path="url(#clip0_1151_44483)">
<path d="M25.5 50C39.285 50 50.5 38.785 50.5 25C50.5 11.215 39.285 0 25.5 0C11.715 0 0.5 11.215 0.5 25C0.5 38.785 11.715 50 25.5 50ZM41.8043 25C41.8043 33.9902 34.4902 41.3043 25.5 41.3043C22.5809 41.3043 19.8411 40.5296 17.4685 39.1804L39.6802 16.9685C41.0296 19.3411 41.8043 22.0809 41.8043 25ZM25.5 8.69565C28.4191 8.69565 31.1589 9.47043 33.5315 10.8198L11.3198 33.0315C9.97043 30.6589 9.19565 27.9191 9.19565 25C9.19565 16.0098 16.5098 8.69565 25.5 8.69565Z" fill="#B00020"/>
</g>
<defs>
<clipPath id="clip0_1151_44483">
<rect width="50" height="50" fill="white" transform="translate(0.5)"/>
</clipPath>
</defs>
</svg>
