<svg width="20" height="22" viewBox="0 0 20 22" fill="none" xmlns="http://www.w3.org/2000/svg">
<path d="M8.58507 0.642976C8.39968 0.64232 8.21373 0.642507 8.02726 0.643304C7.12974 0.647476 6.21788 0.671054 5.29824 0.705179L5.5643 1.87204C6.52201 1.76376 7.57196 1.68313 8.62182 1.64282C9.1906 1.62098 9.75591 1.60944 10.3043 1.61235C11.9493 1.62093 13.4419 1.75907 14.4185 2.13744L14.836 2.29935L14.6496 2.70646C13.2874 5.68232 12.9723 8.55327 13.1858 11.3702C13.2912 8.02715 14.6808 5.05377 16.505 1.24199C14.0227 0.829492 11.3659 0.65221 8.58507 0.642929V0.642976ZM9.89917 2.46126C9.48948 2.46159 9.07182 2.46988 8.65421 2.48591C6.70084 2.56091 4.75426 2.79013 3.48559 3.05291C4.90276 5.68162 6.04918 8.31637 6.78948 10.8849C6.88156 10.8818 6.97373 10.8825 7.06576 10.887C7.2541 10.8962 7.44038 10.9218 7.6224 10.9615C6.86888 8.55229 6.0106 6.33027 4.94368 4.11163L4.7026 3.61035L5.25038 3.51341C6.62645 3.26976 8.04676 3.17544 9.39854 3.17502C9.48863 3.17502 9.57854 3.17535 9.66798 3.17615C10.5269 3.18365 11.3547 3.22809 12.1217 3.29498L12.6399 3.34021L12.4887 3.83788C11.6122 6.72365 11.4405 9.82279 11.9361 12.7714C11.9443 12.7791 11.9527 12.7866 11.9607 12.7944C12.1395 12.7318 12.3067 12.6679 12.4625 12.5997C12.0756 9.44057 12.247 6.1814 13.692 2.79337C12.8857 2.58791 11.6565 2.48052 10.3058 2.46365C10.1703 2.46197 10.0347 2.46119 9.89917 2.4613V2.46126ZM16.6935 2.80743C15.2424 5.88037 14.2118 8.3429 14.0428 11.0013C14.9821 7.86998 16.7976 5.06296 18.8664 3.25954C18.1483 3.08041 17.4234 2.92959 16.6935 2.80743ZM2.86716 3.67598C1.98779 3.85729 1.12876 4.08744 0.297852 4.40544C0.702195 4.75607 1.43316 5.40833 2.32004 6.27524C2.72823 5.8551 3.14452 5.44002 3.57873 5.06258C3.34875 4.59672 3.11154 4.13446 2.86716 3.67598ZM9.52449 4.02669C8.88605 4.0236 8.23252 4.04188 7.57665 4.0873C7.50784 4.72865 7.12852 5.32865 6.67548 5.91871C7.39881 7.62819 8.02351 9.3726 8.58591 11.2247C9.44724 11.4787 10.2994 11.7791 10.9897 12.1389C10.7333 10.1487 10.7683 8.10941 11.1012 6.11512C10.4972 5.49121 10.1826 4.7984 10.1574 4.03668C9.94647 4.03106 9.73549 4.02773 9.52449 4.02669ZM18.0566 5.29162C16.8974 6.66505 15.8759 8.38523 15.1799 10.2562C16.4579 8.43834 18.0294 7.02037 19.7022 6.01874C19.1572 5.7684 18.6086 5.52599 18.0566 5.29162ZM3.9594 5.85219C3.27531 6.47038 2.59937 7.21237 1.89545 7.91924C3.40899 8.81882 4.69815 9.88415 5.74979 11.0908C5.81509 11.0661 5.88104 11.044 5.94737 11.0238C5.45527 9.33177 4.78088 7.60035 3.9594 5.85219ZM14.8994 11.6999C14.1308 12.6275 13.4072 13.1172 12.4108 13.5079C12.5229 13.9401 12.3564 14.4363 11.9733 14.8158C11.7479 15.0389 11.4647 15.2933 11.0506 15.4587C11.1103 15.494 11.1713 15.5273 11.2334 15.5584C11.813 15.8476 12.8369 15.7543 13.7881 15.3217C14.7364 14.8904 15.5835 14.1455 15.8975 13.3909C16.0548 12.9666 15.9425 12.7454 15.667 12.4209C15.4709 12.1901 15.1844 11.9573 14.8994 11.7V11.6999ZM6.92696 11.7274C6.4247 11.7228 5.9146 11.8678 5.49305 12.1849C4.89352 12.636 4.43134 13.4404 4.42721 14.8068V14.8162L4.42674 14.8256C4.28987 17.7028 4.50174 19.0303 4.92151 19.7505C5.29201 20.3862 5.90823 20.6905 6.80963 21.2502C6.85257 21.1374 6.89729 20.9987 6.93924 20.8237C7.04598 20.3785 7.13429 19.7669 7.19026 19.0905C7.30224 17.7378 7.28588 16.1135 7.09862 14.9447L6.99966 14.3264L7.60979 14.4668C9.09174 14.8077 9.93948 14.848 10.4317 14.7612C10.9239 14.6743 11.0908 14.5023 11.3795 14.2163C11.6509 13.9476 11.6459 13.8509 11.5884 13.6997C11.5309 13.5484 11.3002 13.2991 10.9087 13.0606C10.1258 12.5836 8.79535 12.1414 7.55181 11.8116C7.34785 11.7576 7.13794 11.7293 6.92696 11.7274ZM15.791 14.9813C15.3217 15.4385 14.7441 15.8138 14.1374 16.0897C13.1538 16.537 12.072 16.7416 11.1744 16.4438C10.8575 16.5617 10.6734 16.6972 10.5806 16.8094C10.4532 16.9634 10.4452 17.0766 10.4884 17.2388C10.5315 17.401 10.6602 17.5935 10.8193 17.7321C10.9783 17.8707 11.1674 17.9427 11.2392 17.946C13.4327 18.0502 14.382 17.4207 15.5647 16.6906C15.9096 16.4777 16.0416 16.0464 16.0086 15.6157C15.992 15.4004 15.9294 15.198 15.857 15.0705C15.839 15.038 15.8169 15.008 15.791 14.9813ZM8.00101 15.4077C8.12884 16.5827 8.13095 17.9536 8.0311 19.1601C7.97265 19.8666 7.88227 20.5092 7.75974 21.0204C7.70645 21.2428 7.64781 21.4401 7.57693 21.6138L14.4534 21.3107C14.3757 21.0225 14.2966 20.733 14.2175 20.4434C13.9533 20.5314 13.6833 20.6007 13.4094 20.6508L13.4115 20.685L13.0217 20.7093C12.7816 20.7381 12.5317 20.754 12.2724 20.7558L8.34151 21L8.45837 20.456C8.83088 18.7213 8.86524 17.194 8.63546 15.5231C8.42323 15.4888 8.21169 15.4503 8.00096 15.4077H8.00101ZM9.4997 15.6272C9.68476 17.1241 9.66249 18.5527 9.38691 20.0897L10.2899 20.0337C10.1483 19.8247 10.051 19.5889 10.004 19.3409C9.94323 19.0184 9.97702 18.6595 10.188 18.3627C10.1973 18.3495 10.2074 18.3369 10.2174 18.3242C9.97149 18.0971 9.76609 17.8056 9.67299 17.4559C9.5739 17.0835 9.63577 16.6276 9.93067 16.2713C10.0281 16.1537 10.1459 16.0475 10.2842 15.9518C10.1619 15.8543 10.0546 15.751 9.96202 15.6433C9.8184 15.6443 9.6646 15.6389 9.4997 15.6272ZM15.7184 17.5859C14.6189 18.254 13.3836 18.8926 11.1992 18.7889C11.1279 18.7854 11.057 18.7758 10.9874 18.7601C10.9296 18.786 10.8988 18.8189 10.8758 18.8513C10.8306 18.9149 10.8039 19.0295 10.8331 19.1848C10.8916 19.4954 11.1859 19.8358 11.4599 19.8677C13.3998 20.0933 14.7401 19.4586 15.554 18.7203C15.929 18.3801 15.9322 18.1625 15.8769 17.9257C15.8493 17.8075 15.7884 17.6928 15.7184 17.5859ZM15.4051 19.8857C15.2749 19.9673 15.1413 20.0433 15.0045 20.1135C15.0819 20.3971 15.1594 20.6808 15.2359 20.9645L16.1697 20.797C15.9287 20.5914 15.7402 20.3773 15.5889 20.1644C15.5213 20.0693 15.4617 19.9769 15.4051 19.8857Z" />
</svg>
