<svg width="50" height="54" viewBox="0 0 50 54" fill="none" xmlns="http://www.w3.org/2000/svg">
<path d="M41.5921 18.4502C40.5467 19.4956 39.4397 20.4112 38.302 21.1936C38.0185 28.2998 32.1729 33.9746 24.9983 33.9746C17.8238 33.9746 11.6809 28.0129 11.6809 20.6572C11.6809 13.3015 17.6427 7.33981 24.9983 7.33981C25.3673 7.33981 25.7329 7.35347 26.095 7.38422C22.5965 12.1912 21.9918 17.7669 24.9607 20.7358C28.4284 24.2035 35.4561 22.7993 40.656 17.596C45.8559 12.3962 47.2634 5.36851 43.7957 1.90079C40.902 -0.992955 35.5245 -0.490733 30.8029 2.78224C32.4975 3.32888 34.0895 4.11125 35.5381 5.08494C37.6734 4.09075 39.614 3.99508 40.6594 5.04052C41.8757 6.25679 41.5477 8.68931 40.0478 11.2277C36.9081 6.22604 31.3427 2.8984 25.0017 2.8984C15.1964 2.8984 7.24634 10.8485 7.24634 20.6538C7.24634 30.459 15.1964 38.4092 25.0017 38.4092C34.807 38.4092 42.7571 30.459 42.7571 20.6538C42.7571 19.581 42.6614 18.5322 42.4804 17.5106C42.1968 17.8284 41.8996 18.1427 41.5955 18.4502H41.5921ZM28.1005 17.5926C26.4469 15.9391 27.6529 12.0238 30.779 8.65515C33.5087 9.9739 35.7158 12.1912 37.0209 14.9278C33.6556 18.0436 29.7506 19.2428 28.1005 17.5926Z" fill="#2BD9C7"/>
<path d="M20.492 49.3251L17.1439 45.9428L16.8159 46.2503L20.2529 49.7658V53.3941H20.7278V49.7556L24.1545 46.2503L23.8231 45.9428L20.492 49.3251Z" fill="#2BD9C7"/>
<path d="M33.9392 53.3941H41.0625V52.9431H34.4175V50.1758H41.0625V49.7214H34.4175V46.4997H41.0625V46.0453H33.9392V53.3941Z" fill="#2BD9C7"/>
<path d="M49.5217 46.0453V52.6356L43.1705 46.0453H42.7639V53.3941H43.2388V46.8072L49.59 53.3941H50V46.0453H49.5217Z" fill="#2BD9C7"/>
<path d="M32.0192 49.7209H28.5823V50.189H31.9851C31.7459 51.8391 30.2734 53.1135 28.5823 53.1135C26.734 53.1135 25.2239 51.5931 25.2239 49.7209C25.2239 47.8487 26.7306 46.3284 28.5823 46.3284C29.8498 46.3284 30.9567 47.0424 31.5273 48.0947L31.9407 47.8521C31.2847 46.6734 30.024 45.8774 28.5823 45.8774C26.4607 45.8774 24.7388 47.6027 24.7388 49.7209C24.7388 51.8391 26.4641 53.5644 28.5823 53.5644C30.7005 53.5644 32.5078 51.8391 32.5078 49.7209H32.0192Z" fill="#2BD9C7"/>
<path d="M3.84353 45.8673C5.96515 45.8673 7.68705 47.5926 7.68705 49.7108C7.68705 51.829 5.96174 53.5544 3.84353 53.5544C1.72532 53.5544 0 51.829 0 49.7108C0 47.5926 1.72532 45.8673 3.84353 45.8673ZM3.84353 53.1034C5.69184 53.1034 7.2019 51.5831 7.2019 49.7108C7.2019 47.8386 5.69525 46.3183 3.84353 46.3183C1.9918 46.3183 0.485153 47.8386 0.485153 49.7108C0.485153 51.5831 1.9918 53.1034 3.84353 53.1034Z" fill="#2BD9C7"/>
<path d="M8.36691 53.124L11.6672 49.7109L8.34302 46.274L8.66073 45.9323L11.9952 49.3795L15.3297 45.9323L15.6474 46.274L12.313 49.7109L15.6235 53.124L15.3057 53.4656L11.9952 50.0526L8.68466 53.4656L8.36691 53.124Z" fill="#2BD9C7"/>
<path d="M23.8231 45.936L24.1511 46.2435L20.7278 49.7488V53.3907H20.2529V49.7624L16.8159 46.2469L17.1439 45.9394L20.4886 49.3183L23.8231 45.9394V45.936Z" fill="#2BD9C7"/>
<path d="M49.5798 53.3836L43.2286 46.7933V53.3836H42.7537V46.0348H43.1602L49.5114 52.6252V46.0348H49.9863V53.3836H49.5798Z" fill="#2BD9C7"/>
</svg>
