<svg width="21" height="18" viewBox="0 0 21 18" fill="none" xmlns="http://www.w3.org/2000/svg">
<path d="M19.7572 10.0537H17.0271V7.42986H19.7572C20.1675 7.42986 20.5 7.09766 20.5 6.68735C20.5 6.277 20.1675 5.9446 19.7572 5.9446H17.0271V2.30386C17.0271 1.77241 16.9221 1.38233 16.7151 1.14471C16.5183 0.918663 16.2596 0.813477 15.9014 0.813477C15.5595 0.813477 15.3106 0.917938 15.1176 1.14258C14.913 1.38044 14.8092 1.77124 14.8092 2.3041V5.94504H9.67366L7.4901 2.64082C7.30322 2.34593 7.12751 2.06971 6.95687 1.80457C6.80324 1.56578 6.6534 1.37137 6.51187 1.2262C6.38657 1.09768 6.24378 0.998218 6.07677 0.921766C5.91919 0.849828 5.71886 0.813718 5.48184 0.813718C5.17954 0.813718 4.90513 0.896538 4.64237 1.06669C4.38234 1.23499 4.2026 1.44306 4.09282 1.70285C3.99646 1.94973 3.94548 2.32804 3.94548 2.81637V5.9448H1.24247C0.832324 5.94484 0.5 6.27725 0.5 6.68755C0.5 7.09786 0.832324 7.43007 1.24251 7.43007H3.94552V10.0542H1.24251C0.832324 10.0542 0.5 10.3865 0.5 10.797C0.5 11.2071 0.832324 11.5392 1.24251 11.5392H3.94552V15.696C3.94552 16.2118 4.05389 16.5979 4.26853 16.8432C4.47266 17.0772 4.73147 17.1858 5.08294 17.1858C5.42204 17.1858 5.67884 17.0767 5.89179 16.8423C6.10986 16.6022 6.22016 16.2163 6.22016 15.6961V11.5392H10.8672L13.382 15.3954C13.5569 15.6503 13.7374 15.9076 13.9175 16.1599C14.0799 16.3864 14.2572 16.586 14.4442 16.7527C14.6126 16.9035 14.7931 17.014 14.9808 17.0815C15.174 17.151 15.3998 17.1863 15.6504 17.1863C16.3305 17.1863 17.027 16.9781 17.027 15.434V11.5392H19.7572C20.1674 11.5392 20.4999 11.2067 20.4999 10.7965C20.5 10.3863 20.1675 10.0537 19.7572 10.0537ZM14.8091 7.42982V10.0537H12.3894L10.6556 7.42982H14.8091ZM6.2202 4.41492L7.21806 5.9446H6.2202V4.41492ZM6.2202 10.0537V7.42986H8.18699L9.89842 10.0537H6.2202ZM14.8091 13.716L13.3711 11.5392H14.8091V13.716Z" fill="#5A585B"/>
</svg>
