<?xml version="1.0" encoding="UTF-8"?>
<svg xmlns="http://www.w3.org/2000/svg" xmlns:xlink="http://www.w3.org/1999/xlink" width="14px" height="11px" viewBox="0 0 13 11" version="1.1">
<g id="surface1">
<path style=" stroke:none;fill-rule:nonzero;fill:rgb(0%,14.901961%,22.352941%);fill-opacity:1;" d="M 12.355469 6.109375 L 10.628906 6.109375 L 10.628906 4.375 L 12.355469 4.375 C 12.613281 4.375 12.824219 4.15625 12.824219 3.882812 C 12.824219 3.613281 12.613281 3.394531 12.355469 3.394531 L 10.628906 3.394531 L 10.628906 0.984375 C 10.628906 0.632812 10.5625 0.375 10.429688 0.21875 C 10.308594 0.0703125 10.144531 0 9.917969 0 C 9.699219 0 9.542969 0.0703125 9.421875 0.21875 C 9.292969 0.375 9.226562 0.632812 9.226562 0.984375 L 9.226562 3.394531 L 5.976562 3.394531 L 4.597656 1.207031 C 4.476562 1.011719 4.367188 0.832031 4.257812 0.65625 C 4.160156 0.496094 4.066406 0.367188 3.976562 0.273438 C 3.898438 0.1875 3.808594 0.121094 3.703125 0.0703125 C 3.601562 0.0234375 3.476562 0 3.324219 0 C 3.132812 0 2.960938 0.0546875 2.792969 0.167969 C 2.628906 0.277344 2.515625 0.417969 2.445312 0.589844 C 2.386719 0.75 2.355469 1 2.355469 1.324219 L 2.355469 3.394531 L 0.644531 3.394531 C 0.382812 3.394531 0.175781 3.613281 0.175781 3.882812 C 0.175781 4.15625 0.382812 4.375 0.644531 4.375 L 2.355469 4.375 L 2.355469 6.109375 L 0.644531 6.109375 C 0.382812 6.109375 0.175781 6.328125 0.175781 6.601562 C 0.175781 6.871094 0.382812 7.09375 0.644531 7.09375 L 2.355469 7.09375 L 2.355469 9.839844 C 2.355469 10.179688 2.421875 10.4375 2.558594 10.597656 C 2.6875 10.753906 2.851562 10.824219 3.074219 10.824219 C 3.289062 10.824219 3.449219 10.753906 3.585938 10.597656 C 3.722656 10.4375 3.792969 10.183594 3.792969 9.839844 L 3.792969 7.09375 L 6.730469 7.09375 L 8.324219 9.640625 C 8.433594 9.808594 8.546875 9.980469 8.660156 10.148438 C 8.765625 10.296875 8.875 10.429688 8.996094 10.539062 C 9.101562 10.640625 9.214844 10.710938 9.335938 10.757812 C 9.457031 10.800781 9.597656 10.824219 9.757812 10.824219 C 10.1875 10.824219 10.628906 10.6875 10.628906 9.667969 L 10.628906 7.09375 L 12.355469 7.09375 C 12.613281 7.09375 12.824219 6.871094 12.824219 6.601562 C 12.824219 6.328125 12.613281 6.109375 12.355469 6.109375 Z M 9.226562 4.375 L 9.226562 6.109375 L 7.695312 6.109375 L 6.597656 4.375 Z M 3.792969 2.382812 L 4.421875 3.394531 L 3.792969 3.394531 Z M 3.792969 6.109375 L 3.792969 4.375 L 5.035156 4.375 L 6.121094 6.109375 Z M 9.226562 8.53125 L 8.316406 7.09375 L 9.226562 7.09375 Z M 9.226562 8.53125 "/>
</g>
</svg>
