<svg width="23" height="18" viewBox="0 0 23 18" fill="none" xmlns="http://www.w3.org/2000/svg">
<path d="M21.62 10.1586H18.6168V7.27395H21.62C22.0712 7.27395 22.437 6.90873 22.437 6.45764C22.437 6.00651 22.0712 5.64107 21.62 5.64107H18.6168V1.6385C18.6168 1.05423 18.5013 0.625388 18.2736 0.364156C18.0572 0.11564 17.7726 0 17.3785 0C17.0025 0 16.7287 0.114843 16.5164 0.361808C16.2913 0.623305 16.1771 1.05295 16.1771 1.63877V5.64156H10.528L8.12612 2.00895C7.92056 1.68476 7.72727 1.38108 7.53957 1.08959C7.37058 0.827071 7.20576 0.613336 7.05006 0.453744C6.91224 0.31245 6.75517 0.203101 6.57146 0.119052C6.39813 0.0399646 6.17775 0.000265863 5.91704 0.000265863C5.58451 0.000265863 5.28266 0.0913159 4.99362 0.278378C4.70759 0.463403 4.50987 0.692158 4.38911 0.977758C4.28312 1.24918 4.22704 1.66509 4.22704 2.20195V5.64129H1.25373C0.802569 5.64134 0.437012 6.00678 0.437012 6.45786C0.437012 6.90895 0.802569 7.27417 1.25377 7.27417H4.22708V10.1591H1.25377C0.802569 10.1591 0.437012 10.5245 0.437012 10.9757C0.437012 11.4266 0.802569 11.7917 1.25377 11.7917H4.22708V16.3616C4.22708 16.9286 4.34629 17.3531 4.5824 17.6229C4.80694 17.8801 5.09163 17.9995 5.47825 17.9995C5.85125 17.9995 6.13373 17.8795 6.36798 17.6218C6.60786 17.3579 6.72919 16.9336 6.72919 16.3617V11.7917H11.841L14.6072 16.0311C14.7996 16.3113 14.9982 16.5942 15.1962 16.8716C15.3749 17.1206 15.5699 17.3401 15.7756 17.5233C15.9609 17.6891 16.1595 17.8106 16.3659 17.8848C16.5784 17.9612 16.8268 18 17.1025 18C17.8506 18 18.6168 17.7711 18.6168 16.0736V11.7917H21.6199C22.0711 11.7917 22.4369 11.4261 22.4369 10.9751C22.437 10.5242 22.0712 10.1586 21.62 10.1586ZM16.1771 7.2739V10.1585H13.5154L11.6082 7.2739H16.1771ZM6.72924 3.95937L7.82688 5.64107H6.72924V3.95937ZM6.72924 10.1586V7.27395H8.8927L10.7753 10.1586H6.72924ZM16.1771 14.1848L14.5952 11.7917H16.1771V14.1848Z" fill="#002639"/>
</svg>
