<svg width="28" height="26" viewBox="0 0 28 26" fill="none" xmlns="http://www.w3.org/2000/svg">
<path d="M24.7291 12.4002C23.9764 13.1029 23.1794 13.7183 22.3602 14.2441C22.1561 19.0202 17.9473 22.8341 12.7815 22.8341C7.61579 22.8341 3.19291 18.8273 3.19291 13.8836C3.19291 8.93989 7.48541 4.93305 12.7815 4.93305C13.0472 4.93305 13.3104 4.94223 13.5711 4.96289C11.0522 8.19363 10.6168 11.941 12.7544 13.9364C15.2512 16.267 20.3112 15.3233 24.0551 11.8262C27.799 8.3314 28.8125 3.60814 26.3157 1.27751C24.2322 -0.667359 20.3604 -0.329819 16.9608 1.86993C18.1809 2.23732 19.3272 2.76315 20.3702 3.41756C21.9076 2.74937 23.3048 2.68507 24.0576 3.38771C24.9333 4.20515 24.6971 5.84004 23.6172 7.54611C21.3566 4.18448 17.3495 1.948 12.784 1.948C5.72412 1.948 0 7.29123 0 13.8813C0 20.4714 5.72412 25.8146 12.784 25.8146C19.8438 25.8146 25.5679 20.4714 25.5679 13.8813C25.5679 13.1603 25.499 12.4554 25.3687 11.7688C25.1645 11.9823 24.9505 12.1936 24.7316 12.4002H24.7291ZM15.0151 11.8239C13.8245 10.7126 14.6928 8.08112 16.9436 5.81708C18.909 6.7034 20.4981 8.19363 21.4378 10.0329C19.0148 12.127 16.2032 12.933 15.0151 11.8239Z" fill="#2BD9C7"/>
</svg>
