<svg width="76" height="76" viewBox="0 0 76 76" fill="none" xmlns="http://www.w3.org/2000/svg">
<path d="M0.5 33.8333H33.8333V0.5H0.5V33.8333ZM8.83333 8.83333H25.5V25.5H8.83333V8.83333Z" fill="black"/>
<path d="M0.5 75.5H33.8333V42.1667H0.5V75.5ZM8.83333 50.5H25.5V67.1667H8.83333V50.5Z" fill="black"/>
<path d="M42.167 0.5V33.8333H75.5003V0.5H42.167ZM67.167 25.5H50.5003V8.83333H67.167V25.5Z" fill="black"/>
<path d="M75.5003 67.1667H67.167V75.5H75.5003V67.1667Z" fill="black"/>
<path d="M50.5003 42.1667H42.167V50.5H50.5003V42.1667Z" fill="black"/>
<path d="M58.8333 50.5H50.5V58.8333H58.8333V50.5Z" fill="black"/>
<path d="M50.5003 58.8333H42.167V67.1667H50.5003V58.8333Z" fill="black"/>
<path d="M58.8333 67.1667H50.5V75.5H58.8333V67.1667Z" fill="black"/>
<path d="M67.1663 58.8333H58.833V67.1667H67.1663V58.8333Z" fill="black"/>
<path d="M67.1663 42.1667H58.833V50.5H67.1663V42.1667Z" fill="black"/>
<path d="M75.5003 50.5H67.167V58.8333H75.5003V50.5Z" fill="black"/>
</svg>
