<svg width="30" height="30" viewBox="0 0 30 30" fill="none" xmlns="http://www.w3.org/2000/svg">
<rect width="30" height="30" rx="4" fill="#4CAF50"/>
<rect width="30" height="30" rx="4" fill="white" fill-opacity="0.9"/>
<path d="M24.2572 16.2351H21.5271V13.6127H24.2572C24.6675 13.6127 25 13.2807 25 12.8706C25 12.4605 24.6675 12.1282 24.2572 12.1282H21.5271V8.48955C21.5271 7.95839 21.4221 7.56853 21.2151 7.33105C21.0183 7.10513 20.7596 7 20.4014 7C20.0595 7 19.8106 7.1044 19.6176 7.32892C19.413 7.56664 19.3092 7.95722 19.3092 8.48979V12.1287H14.1737L11.9901 8.82632C11.8032 8.5316 11.6275 8.25553 11.4569 7.99053C11.3032 7.75188 11.1534 7.55758 11.0119 7.41249C10.8866 7.28405 10.7438 7.18464 10.5768 7.10823C10.4192 7.03633 10.2189 7.00024 9.98184 7.00024C9.67954 7.00024 9.40513 7.08301 9.14237 7.25307C8.88234 7.42128 8.7026 7.62923 8.59282 7.88887C8.49646 8.13562 8.44548 8.51371 8.44548 9.00177V12.1284H5.74247C5.33232 12.1285 5 12.4607 5 12.8708C5 13.2809 5.33232 13.6129 5.74251 13.6129H8.44552V16.2355H5.74251C5.33232 16.2355 5 16.5677 5 16.9779C5 17.3878 5.33232 17.7197 5.74251 17.7197H8.44552V21.8742C8.44552 22.3897 8.55389 22.7756 8.76853 23.0208C8.97266 23.2546 9.23147 23.3632 9.58294 23.3632C9.92204 23.3632 10.1788 23.2541 10.3918 23.0199C10.6099 22.7799 10.7202 22.3942 10.7202 21.8742V17.7197H15.3672L17.882 21.5737C18.0569 21.8285 18.2374 22.0856 18.4175 22.3378C18.5799 22.5642 18.7572 22.7637 18.9442 22.9303C19.1126 23.081 19.2931 23.1915 19.4808 23.2589C19.674 23.3284 19.8998 23.3636 20.1504 23.3636C20.8305 23.3636 21.527 23.1556 21.527 21.6124V17.7197H24.2572C24.6674 17.7197 24.9999 17.3874 24.9999 16.9774C25 16.5674 24.6675 16.2351 24.2572 16.2351ZM19.3091 13.6126V16.235H16.8894L15.1556 13.6126H19.3091ZM10.7202 10.5994L11.7181 12.1282H10.7202V10.5994ZM10.7202 16.2351V13.6127H12.687L14.3984 16.2351H10.7202ZM19.3091 19.8953L17.8711 17.7197H19.3091V19.8953Z" fill="#4CAF50"/>
</svg>
