<svg width="20" height="21" viewBox="0 0 20 21" fill="none" xmlns="http://www.w3.org/2000/svg">
<path d="M16.8225 9.25672C17.7843 8.60022 18.466 7.64023 18.7894 6.56496C18.8886 6.70083 18.9827 6.84188 19.0713 6.98835C19.6755 7.98655 20 9.19142 20 10.6285C20 12.8344 19.1671 14.3776 18.3194 15.3665C17.899 15.8571 17.4777 16.2086 17.1579 16.4396C17.1021 16.4798 17.0493 16.5165 17 16.5498V18.3785C17 19.345 16.2165 20.1285 15.25 20.1285H14C13.1716 20.1285 12.5 19.4569 12.5 18.6285H10.5C10.5 19.4569 9.8284 20.1285 9 20.1285H7.75C6.7835 20.1285 6 19.345 6 18.3785V17.6958C5.86194 17.6493 5.7053 17.5915 5.53573 17.5206C4.93965 17.2711 4.15955 16.8487 3.46967 16.1588C2.68564 15.3748 2.16052 14.5567 1.8651 14.0278C1.77791 13.8717 1.64768 13.7884 1.53621 13.7698C0.64973 13.6221 0 12.8551 0 11.9564V10.2035C0 9.36082 0.60926 8.64162 1.44051 8.50302C1.52742 8.48852 1.6555 8.40222 1.71651 8.21952C1.90886 7.64326 2.28209 6.78572 2.96967 6.09814C3.53209 5.53573 4.15488 5.12258 4.6279 4.85229C4.76427 4.77436 4.88983 4.70738 5 4.6513V1.79963C5 0.861727 6.13062 0.476746 6.73986 1.08341C7.07031 1.41246 7.55006 1.8513 8.0811 2.21777C8.6111 2.58354 9.1177 2.82457 9.5352 2.87771C9.0507 3.84016 8.8779 4.95413 9.0853 6.05263C9.2662 7.01027 9.999 7.61535 10.6874 7.90043L14.3831 9.43082C15.0715 9.71592 16.0175 9.80612 16.8225 9.25672ZM6 9.12842C6.55228 9.12842 7 8.68072 7 8.12842C7 7.57617 6.55228 7.12845 6 7.12845C5.44772 7.12845 5 7.57617 5 8.12842C5 8.68072 5.44772 9.12842 6 9.12842Z" />
</svg>
