<svg width="20" height="24" viewBox="0 0 20 24" fill="none" xmlns="http://www.w3.org/2000/svg">
<path d="M15.7708 16.4594C15.0269 16.4594 14.334 16.6757 13.7498 17.0476L7.85307 12.9307C7.94773 12.6003 7.99949 12.2517 7.99949 11.8909C7.99949 11.53 7.94773 11.1814 7.85307 10.851L13.5906 6.84529C14.2062 7.28257 14.9581 7.54056 15.7708 7.54056C17.853 7.54056 19.541 5.85253 19.541 3.7703C19.541 1.68808 17.8531 0 15.7708 0C13.6886 0 12.0006 1.68802 12.0006 3.77025C12.0006 4.04525 12.0308 4.31308 12.0867 4.57133L6.20351 8.67879C5.62923 8.32509 4.95323 8.12064 4.22924 8.12064C2.14701 8.12064 0.458984 9.80866 0.458984 11.8909C0.458984 13.9731 2.14696 15.6611 4.22924 15.6611C4.95318 15.6611 5.62923 15.4567 6.20351 15.103L12.1321 19.2422C12.0469 19.557 12.0006 19.8879 12.0006 20.2297C12.0006 22.312 13.6886 24 15.7708 24C17.8531 24 19.5411 22.312 19.5411 20.2297C19.5411 18.1475 17.8531 16.4594 15.7708 16.4594Z" fill="#5A585B"/>
</svg>
