<svg width="16" height="16" viewBox="0 0 16 16" fill="none" xmlns="http://www.w3.org/2000/svg">
<path d="M4.4978 2.66766H6.80727C7.08342 2.66766 7.30727 2.89152 7.30727 3.16766C7.30727 3.42079 7.11917 3.62999 6.87512 3.6631L6.80727 3.66766H4.4978C3.70389 3.66766 3.05404 4.28444 3.00126 5.06496L2.9978 5.16766V11.501C2.9978 12.2949 3.61458 12.9448 4.3951 12.9975L4.4978 13.001H10.8316C11.6255 13.001 12.2754 12.3842 12.3282 11.6037L12.3316 11.501V11.1691C12.3316 10.893 12.5555 10.6691 12.8316 10.6691C13.0848 10.6691 13.294 10.8572 13.3271 11.1013L13.3316 11.1691V11.501C13.3316 12.8372 12.2834 13.9285 10.9644 13.9975L10.8316 14.001H4.4978C3.16163 14.001 2.07029 12.9528 2.00127 11.6338L1.9978 11.501V5.16766C1.9978 3.83149 3.04604 2.74015 4.36503 2.67113L4.4978 2.66766H6.80727H4.4978ZM9.66713 4.36387V2.501C9.66713 2.08502 10.1383 1.86096 10.4584 2.0942L10.5132 2.14016L14.5096 5.97349C14.6962 6.15239 14.7131 6.43974 14.5606 6.63838L14.5097 6.69511L10.5133 10.5297C10.2131 10.8177 9.72519 10.6328 9.6719 10.2403L9.66713 10.1689V8.30099L9.45329 8.29684C7.6816 8.2916 6.16723 9.01894 4.87671 10.4977C4.54631 10.8763 3.92653 10.5856 4.00635 10.0895C4.55768 6.66255 6.40573 4.72651 9.46584 4.38395L9.66713 4.36387V2.501V4.36387Z" fill="#5A585B"/>
</svg>
