<svg width="16" height="16" viewBox="0 0 16 16" fill="none" xmlns="http://www.w3.org/2000/svg">
<g clip-path="url(#clip0_2718_315596)">
<path d="M15.986 6.18126C15.9522 6.07758 15.8626 6.00198 15.7546 5.98622L10.5737 5.23329L8.25681 0.538714C8.2087 0.440767 8.10903 0.378906 8.0002 0.378906C7.89137 0.378906 7.79142 0.440767 7.74359 0.538714L5.42638 5.23358L0.2455 5.98651C0.137529 6.00226 0.0481738 6.07758 0.0140928 6.18154C-0.0194153 6.28493 0.00836492 6.39892 0.0865506 6.47481L3.83574 10.1292L2.9505 15.2895C2.93217 15.3969 2.97627 15.5054 3.06419 15.5696C3.15269 15.6343 3.26983 15.6426 3.36577 15.5913L8.0002 13.1553L12.6341 15.5913C12.6759 15.6134 12.722 15.6243 12.7675 15.6243C12.8268 15.6243 12.8858 15.6059 12.9359 15.5696C13.0241 15.5054 13.0682 15.3969 13.0496 15.2895L12.1647 10.1295L15.9139 6.47481C15.9918 6.39835 16.0198 6.28465 15.986 6.18126Z" fill="black" fill-opacity="0.38"/>
</g>
<defs>
<clipPath id="clip0_2718_315596">
<rect width="16" height="16" fill="white"/>
</clipPath>
</defs>
</svg>
