<svg width="53" height="52" viewBox="0 0 53 52" fill="none" xmlns="http://www.w3.org/2000/svg">
<path d="M26.5 0C12.164 0 0.5 11.663 0.5 26C0.5 40.337 12.164 52 26.5 52C40.836 52 52.5 40.337 52.5 26C52.5 11.663 40.836 0 26.5 0ZM26.5 50C13.267 50 2.5 39.233 2.5 26C2.5 12.767 13.267 2 26.5 2C39.733 2 50.5 12.767 50.5 26C50.5 39.233 39.733 50 26.5 50Z" fill="#4CAF50"/>
<path d="M38.7521 15.336L23.3831 32.626L14.1241 25.219C13.6941 24.874 13.0631 24.945 12.7191 25.375C12.3741 25.807 12.4442 26.436 12.8751 26.781L22.8751 34.781C23.0591 34.928 23.2801 35 23.5001 35C23.7761 35 24.0511 34.886 24.2481 34.664L40.2482 16.664C40.6152 16.252 40.5782 15.619 40.1652 15.253C39.7512 14.885 39.1201 14.922 38.7521 15.336Z" fill="#4CAF50"/>
</svg>
