<svg width="20" height="21" viewBox="0 0 20 21" fill="none" xmlns="http://www.w3.org/2000/svg">
<path d="M10 20.1279C4.477 20.1279 0 15.6509 0 10.1279C0 4.60493 4.477 0.12793 10 0.12793C15.523 0.12793 20 4.60493 20 10.1279C20 15.6509 15.523 20.1279 10 20.1279ZM10 18.1279C12.1217 18.1279 14.1566 17.2851 15.6569 15.7848C17.1571 14.2845 18 12.2497 18 10.1279C18 8.0062 17.1571 5.97137 15.6569 4.47108C14.1566 2.97078 12.1217 2.12793 10 2.12793C7.87827 2.12793 5.84344 2.97078 4.34315 4.47108C2.84285 5.97137 2 8.0062 2 10.1279C2 12.2497 2.84285 14.2845 4.34315 15.7848C5.84344 17.2851 7.87827 18.1279 10 18.1279ZM5 7.12793L8 3.62793L11 7.12793H9V11.1279H7V7.12793H5ZM15 13.1279L12 16.6279L9 13.1279H11V9.12793H13V13.1279H15Z" />
</svg>
