<svg width="23" height="24" viewBox="0 0 23 24" fill="none" xmlns="http://www.w3.org/2000/svg">
<path d="M15.6569 16.0586C15.4361 16.0586 15.2594 16.2255 15.2348 16.4463C15.0434 18.3408 13.4434 19.8181 11.4949 19.8181C9.55139 19.8181 7.95139 18.3408 7.75507 16.4463C7.73053 16.2304 7.55384 16.0586 7.33298 16.0586H2.22869C1.15875 16.0586 0.290039 16.9273 0.290039 17.9972V22.061C0.290039 23.131 1.15875 23.9997 2.22869 23.9997H20.771C21.841 23.9997 22.7097 23.131 22.7097 22.061V18.0022C22.7097 16.9322 21.841 16.0635 20.771 16.0635H15.6569V16.0586Z" fill="#5A585B"/>
<path d="M8.60417 6.31656L10.1207 4.8V14.6847C10.1207 15.4454 10.7391 16.0638 11.4999 16.0638C12.2606 16.0638 12.879 15.4454 12.879 14.6847V4.8L14.3956 6.31656C14.8618 6.78282 15.6079 6.90061 16.1575 6.53252C16.9085 6.0319 16.9821 5.00613 16.3784 4.40245L12.3146 0.33865C11.8631 -0.112883 11.1318 -0.112883 10.6802 0.33865L6.61644 4.40245C6.01276 5.00613 6.08638 6.0319 6.8373 6.53252C7.3919 6.90061 8.13791 6.78282 8.60417 6.31656Z" fill="#5A585B"/>
</svg>
