<svg width="139" height="139" viewBox="0 0 139 139" fill="none" xmlns="http://www.w3.org/2000/svg">
<g opacity="0.3">
<path opacity="0.2" d="M0 105C13.7888 105 27.4426 102.284 40.1818 97.0074C52.9209 91.7306 64.4961 83.9964 74.2462 74.2462C83.9964 64.4961 91.7306 52.921 97.0074 40.1818C102.284 27.4426 105 13.7888 105 4.45759e-07L94.8022 0C94.8022 12.4496 92.3501 24.7773 87.5858 36.2792C82.8216 47.7812 75.8385 58.2321 67.0353 67.0353C58.2321 75.8385 47.7812 82.8216 36.2792 87.5858C24.7773 92.3501 12.4496 94.8022 4.45759e-07 94.8022L0 105Z" />
<path opacity="0.1" d="M0 139C18.2537 139 36.3287 135.405 53.193 128.419C70.0573 121.434 85.3805 111.195 98.2878 98.2878C111.195 85.3805 121.434 70.0573 128.419 53.193C135.405 36.3287 139 18.2537 139 5.901e-07L125.5 0C125.5 16.4809 122.254 32.8004 115.947 48.0268C109.64 63.2532 100.396 77.0882 88.742 88.742C77.0882 100.396 63.2532 109.64 48.0268 115.947C32.8004 122.254 16.4809 125.5 5.901e-07 125.5L0 139Z" />
<path opacity="0.4" d="M0 77C10.1118 77 20.1246 75.0083 29.4666 71.1387C38.8087 67.2691 47.2971 61.5973 54.4472 54.4472C61.5973 47.2971 67.2691 38.8087 71.1387 29.4666C75.0083 20.1245 77 10.1118 77 3.2689e-07L69.5216 0C69.5216 9.12971 67.7234 18.17 64.2296 26.6048C60.7358 35.0395 55.6149 42.7035 49.1592 49.1592C42.7035 55.6149 35.0395 60.7358 26.6048 64.2296C18.17 67.7234 9.12971 69.5216 3.2689e-07 69.5216L0 77Z" />
<path opacity="0.5" d="M0 49C6.43477 49 12.8065 47.7326 18.7515 45.2701C24.6964 42.8076 30.0982 39.1983 34.6482 34.6482C39.1983 30.0982 42.8076 24.6964 45.2701 18.7515C47.7326 12.8065 49 6.43477 49 0L25.5517 2.78974e-06C25.5517 3.35549 24.8907 6.67813 23.6067 9.7782C22.3226 12.8783 20.4404 15.6951 18.0678 18.0678C15.6951 20.4404 12.8783 22.3226 9.7782 23.6067C6.67813 24.8907 3.35549 25.5517 1.02496e-06 25.5517L0 49Z" />
</g>
</svg>
